<svg width="600" height="600" xmlns="http://www.w3.org/2000/svg" stroke="null" style="vector-effect: non-scaling-stroke;">

 <g stroke="null">
  <title stroke="null">Layer 1</title>
  <rect stroke-width="0" stroke="#000" rx="50" id="svg_1" height="600" width="600" y="0" x="0" fill="#56aaff"/>
  <path transform="rotate(45 320.309 278.13)" stroke="#000" stroke-width="0" id="svg_2" d="m321.41234,71.00733c-4.50206,0 -8.5075,1.77704 -11.88706,5.00043c-3.3767,3.22074 -6.16972,7.83581 -8.49389,13.59952c-4.64769,11.52582 -7.50667,27.71698 -9.07051,47.10739c-1.56077,19.35311 -1.8238,41.88801 -1.17537,66.01118c-55.61153,21.93692 -168.40207,67.23077 -177.46265,77.34394c-12.06312,13.46453 -8.16555,28.89563 -3.30442,39.13942l185.42426,-36.28872c3.91945,47.29041 9.49235,94.12907 14.34868,130.83075c-18.13337,5.10297 -51.98249,15.17899 -58.96936,21.42728c-9.62501,8.60753 -9.62494,36.40532 -9.62494,36.40532l75.89069,-5.93505c1.78739,11.98223 2.90519,18.97379 2.90519,18.97379l0.1109,0.63091l0.5988,0l1.39714,0l0.59879,0l0.1109,-0.63091c0,0 1.11568,-6.99169 2.90518,-18.97379l75.91287,5.93505c0,0 0.00009,-27.7978 -9.62496,-36.40532c-6.98949,-6.2507 -40.86332,-16.34957 -58.99155,-21.45079c4.8463,-36.58905 10.40936,-83.24848 14.32652,-130.38653l183.25096,35.86801c4.86107,-10.2438 8.78092,-25.6749 -3.28222,-39.13942c-8.94849,-9.988 -119.01358,-54.27445 -175.31146,-76.50281c0.67265,-24.43583 0.4254,-47.27784 -1.15322,-66.85231l0,-0.04673c-1.56464,-19.36903 -4.42666,-35.54442 -9.07047,-47.06066c-2.32351,-5.76211 -5.09379,-10.37765 -8.4717,-13.59952c-3.37959,-3.22339 -7.38498,-5.00043 -11.88702,-5.00043l-0.00009,0.00001z" fill="#fff"/>
 </g>
</svg>